<?xml version="1.0" encoding="utf-8"?>
<!-- Generator: Adobe Illustrator 24.0.1, SVG Export Plug-In . SVG Version: 6.00 Build 0)  -->
<svg version="1.1" id="Layer_1" xmlns="http://www.w3.org/2000/svg" xmlns:xlink="http://www.w3.org/1999/xlink" x="0px" y="0px"
	 viewBox="0 0 344 116" style="enable-background:new 0 0 344 116;" xml:space="preserve">
<style type="text/css">
	.st0{filter:url(#filter-1);}
	.st1{fill:#FFFFFF;}
	.st2{fill:#D90055;}
</style>
<filter  filterUnits="objectBoundingBox" height="213.4%" id="filter-1" width="136.9%" x="-18.5%" y="-56.7%">
	<feOffset  dx="0" dy="3" in="SourceAlpha" result="shadowOffsetOuter1"></feOffset>
	<feGaussianBlur  in="shadowOffsetOuter1" result="shadowBlurOuter1" stdDeviation="15"></feGaussianBlur>
	
		<feColorMatrix  in="shadowBlurOuter1" result="shadowMatrixOuter1" type="matrix" values="0 0 0 0 0   0 0 0 0 0   0 0 0 0 0  0 0 0 0.07 0">
		</feColorMatrix>
	<feMerge>
		<feMergeNode  in="shadowMatrixOuter1"></feMergeNode>
		<feMergeNode  in="SourceGraphic"></feMergeNode>
	</feMerge>
</filter>
<title>8850141C-366A-45A8-AA34-4C07A89979EF@2.00x</title>
<g id="Desktop">
	<g id="Desktop---landing-page" transform="translate(-501.000000, -422.000000)">
		<g id="Logo" transform="translate(548.000000, 469.000000)" class="st0">
			<path id="Path_1_" d="M-28.3-45c6.6,0,12.4,3.4,15.7,8.6c0.6,0.9,0.8,1.4,1.8,1.8S-9-34.8-8-35.3c5.1-2.5,11.1-2.8,16.5-0.5
				c5.8,2.4,10.1,7.3,11.7,13.2c0.1,0.5,0.1,1,0.5,1.3c0.3,0.3,0.8,0.3,1.2,0.4c0.8,0.1,1.6,0.3,2.4,0.6c0.2,0.1,0.5,0.2,0.9,0.2
				c0.4,0,0.9-0.2,1.1-0.2c3.6-0.9,7.3-1.3,11.1-1l0.8,0.1l0.3,0c5.9,0.7,11.4,2.8,16,6c1,0.7,1.5,1.4,2.9,1.4
				c1.4,0,2.1-0.7,3.1-1.4c5.3-3.6,11.7-5.8,18.5-6l0.8,0l0.2,0c5.5,0.1,10.7,1.4,15.4,3.8c0.7,0.3,1.2,0.7,1.8,0.7s1.2-0.3,1.7-0.7
				c0.5-0.3,1-0.7,1.5-1c4.7-2.7,10.3-3.2,15.3-1.5c0.7,0.2,1.4,0.7,2,0.7c0.6,0,1.3-0.4,1.9-0.7c3.9-1.3,8.2-1.3,12.2,0.1
				c0.6,0.2,1.2,0.6,1.8,0.6s1-0.3,1.6-0.5c1.7-0.6,3.5-1,5.3-1.1l0.6,0l0.5,0c3.2,0,6.2,0.8,9,2.3c1,0.5,1.5,1.2,2.8,1.4
				c1.2,0.1,1.9-0.5,2.8-0.9c4-1.8,8.4-2.9,13-3.1c7.9-0.3,15.3,2,21.4,6.2c1.2,0.8,1.7,1.6,3,1.7s2.3-0.7,3.3-1.4
				c4.2-3,9.1-5.1,14.2-6c1-0.2,2.2,0,2.8-1.1s0.6-2.2,0.7-3c0.5-3.9,2.2-7.6,5-10.6l0.4-0.4c3.4-3.4,8-5.4,12.8-5.5l0.5,0l0,0
				c9.9,0,18,7.7,18.7,17.4c0,0.3,0,1.6,1.1,2.4s2.9,0.7,3.2,0.6c1.8-0.3,3.6-0.4,5.5-0.4c9.2,0,18.1,3.7,24.6,10.2
				c6.4,6.4,10,14.9,10.2,23.9l0,0.7l0,0.6C296,32.8,280.5,48,261.5,48c-6.5,0-12.6-1.8-17.8-4.9c-1.6-0.9-3.4-1.3-4.6-1.3
				s-2.7,0.3-4.2,1.2c-1.4,0.9-3,1.6-4.5,2.3c-8.7,3.6-18.2,3.5-26.6,0.1c-1-0.4-1.8-0.8-3-0.8c-1.1,0-1.8,0.3-2.8,0.5
				c-1.7,0.5-3.4,0.7-5.2,0.8c-1.7,0-3.4-0.2-5-0.7c-0.4-0.1-1-0.4-2-0.4c-1,0-1.5,0.4-1.8,0.5c-4,1.7-8.4,2.6-12.9,2.6l-1,0
				c-7.4-0.1-14.3-2.5-19.9-6.6c-0.7-0.5-1.2-0.7-2.1-0.7s-1.5,0.2-2.3,0.8c-5.5,4-12.2,6.4-19.5,6.6l-0.8,0h-0.2
				c-3.5,0-7-0.6-10.2-1.6c-0.6-0.2-1.8-0.2-2.8,0.3c-1.1,0.5-1.7,1.4-1.9,1.8C105.9,57.1,98,63.5,88.3,66l-0.7,0.2l-0.2,0
				c-9.9,2.1-19.7-4.1-22-13.9l-0.1-0.4l-0.1-0.6L65,50.5c0-0.9,0-1.5,0-2.3v-0.6v-0.4v-0.3v-0.2c0-0.2,0-0.3,0-0.7
				c0-0.4-0.2-1.1-1-1.4c-1.2-0.5-2-0.1-2.2,0C58.7,46.8,55,48,50.9,48c-4.6,0-8.8-1.6-12-4.4c-0.8-0.7-2.5-1.3-4-1.3
				s-3,0.6-3.8,1.2c-3.2,2.7-7.2,4.4-11.7,4.5l-0.5,0c-1.5,0-4.8-0.4-6.6-0.7c-0.6-0.1-1.3-0.2-2.4-0.2S8,47.4,7.6,47.5
				c-1,0.3-3.2,0.4-6.5,0.5c-2-0.1-3.4-0.2-4.2-0.4c-0.4-0.1-1.6-0.2-2.3-0.2c-0.7,0-1.8,0.2-2.2,0.3c-1.3,0.3-2.7,0.5-4,0.5l-0.5,0
				c-19,0-34.5-15.3-34.8-34.3l0-0.6v-39.6C-47-36.6-38.6-45-28.3-45z"/>
			<g id="linguado-logo-01_1_" transform="translate(14.143846, 14.966154)">
				<path id="Path_125-2_1_" class="st1" d="M-13.2-27.1c-2.1,0-3.9-1.2-4.7-3.1c-0.8-1.9-0.4-4.1,1.1-5.6c1.4-1.5,3.6-1.9,5.5-1.1
					c1.9,0.8,3.1,2.6,3.1,4.7l0,0C-8.2-29.4-10.5-27.2-13.2-27.1"/>
				<path id="Path_126-2_1_" class="st1" d="M8.5-2.2v16.5c0,2.1-1.7,3.7-3.7,3.7c-2.1,0-3.7-1.7-3.7-3.7v-35.5h3.4c2.2,0,4,1.8,4,4
					l0,0l0,0l0,0c4-3.2,9-4.7,14.1-4.2c10.3,1.2,18,9.9,17.9,20.3v15.4c0,2.1-1.7,3.7-3.7,3.7c-2.1,0-3.7-1.7-3.7-3.7V-1.3
					c0.1-6.4-4.7-11.9-11-12.7c-3.3-0.3-6.5,0.6-9.1,2.7c-2.6,2.1-4.2,5-4.5,8.3C8.4-2.7,8.4-2.4,8.5-2.2"/>
				<path id="Path_127-2_1_" class="st1" d="M85.5,17.4c-0.1,9.2-6.4,17.1-15.3,19.2c-2,0.4-3.9-0.8-4.3-2.8c0-0.3,0-0.5,0-0.8l0,0
					c0-1.7,1.3-3.2,3-3.6c5.5-1.4,9.3-6.2,9.4-11.9v-3.7c-6.7,5.4-16.2,5.8-23.3,1S44.4,1,46.9-7.3s10-14,18.6-14.1
					c11.1,0.2,19.9,9.2,19.9,20.2V17.4z M65.7-14c-6.8,0-12.4,5.5-12.4,12.3c0,6.8,5.5,12.4,12.3,12.4C72.4,10.7,78,5.2,78-1.6l0,0
					C78-8.4,72.6-13.9,65.7-14L65.7-14"/>
				<path id="Path_128-2_1_" class="st1" d="M176.6,15.3c-1.7-1.4-3.2-3.1-4.4-4.9c-3.7,4.9-9.6,7.8-15.8,7.8
					c-10.8,0-19.6-8.6-19.8-19.3c-0.2-10.8,8.2-19.7,18.9-20.2c10.8-0.5,19.9,7.8,20.6,18.5c0,0.4,0,0.8,0,1.1v1.6
					c0,3.8,1.7,7.3,4.6,9.7c0.9,0.7,1.4,1.7,1.5,2.9v0.1c0,0.9-0.4,1.8-1,2.5c-0.7,0.7-1.5,1-2.5,1C177.9,16,177.2,15.7,176.6,15.3
					 M156.4-14c-6.7-0.1-12.2,5.3-12.3,12c0,0.3,0,0.6,0,0.9c0.4,6.4,5.6,11.5,12.1,11.7c3.2,0.1,6.4-1.2,8.7-3.4
					c2.3-2.3,3.7-5.3,3.8-8.6v-0.4c0-3.2-1.2-6.3-3.5-8.6c-2.3-2.3-5.3-3.6-8.5-3.6H156.4"/>
				<path id="Path_129-2_1_" class="st1" d="M218.9-41.4c2.1,0,3.7,1.7,3.7,3.7v35.9c0,8-4.8,15.2-12.1,18.3
					c-7.4,3.1-15.9,1.4-21.6-4.2c-5.7-5.6-7.4-14.1-4.4-21.5s10.2-12.2,18.2-12.3l0,0c4.5,0,8.8,1.5,12.3,4.3v-20.5
					c0-1,0.4-1.9,1.1-2.6C216.9-41,217.8-41.4,218.9-41.4 M215.1-1.8L215.1-1.8c0-5.3-3.3-10-8.2-11.7c-6.5-2.2-13.5,1.2-15.8,7.6
					c-2.3,6.4,1.1,13.5,7.6,15.8c6.4,2.3,13.5-1.1,15.8-7.5C214.9,1.1,215.2-0.3,215.1-1.8"/>
				<path id="Path_130-2_1_" class="st1" d="M267.1-1.7c0,10.9-8.9,19.8-19.8,19.8c-10.9,0-19.8-8.9-19.8-19.8s8.9-19.8,19.8-19.8
					c5.2,0,10.3,2.1,14,5.8C265.1-12,267.1-6.9,267.1-1.7 M259.7-1.7c0-6.8-5.5-12.3-12.3-12.3C240.6-14,235-8.5,235-1.7
					s5.5,12.3,12.3,12.3C254.2,10.7,259.7,5.1,259.7-1.7"/>
				<path id="Path_131-2_1_" class="st1" d="M-22.5,14.5c0-1-0.4-1.9-1.1-2.6c-0.7-0.7-1.7-1.1-2.6-1.1l0,0
					c-6.8,0-12.4-5.5-12.4-12.3l0,0v-39.6l0,0c0,0,0,0,0-0.1c0-2.1-1.7-3.7-3.7-3.7c-2.1,0-3.7,1.7-3.7,3.7c0,0,0,0,0,0.1l0,0v39.5
					c0,11,8.9,19.8,19.9,19.9l0,0C-24.2,18.2-22.5,16.6-22.5,14.5"/>
				<path id="Path_132-2_1_" class="st1" d="M-13.2,18.1L-13.2,18.1c-2,0-3.7-1.7-3.7-3.7v-35.1c0.1-2,1.8-3.5,3.7-3.5
					s3.6,1.5,3.7,3.5v35.1C-9.5,16.4-11.2,18.1-13.2,18.1"/>
				<path id="Path_133-2_1_" class="st2" d="M123.6-17.3v15.8c0,6.7-5.5,12.2-12.2,12.2S99.1,5.2,99.1-1.5v-15.8
					c0-1.3-0.7-2.6-1.9-3.2c-1.1-0.7-2.6-0.7-3.7,0c-1.1,0.7-1.9,1.9-1.9,3.2v15.8c0,10.8,8.7,19.7,19.6,19.8h0.1
					C122.3,18.1,131,9.3,131-1.5v-15.8c0-1-0.4-1.9-1.1-2.6c-0.7-0.7-1.6-1.1-2.6-1.1C125.2-21.1,123.6-19.4,123.6-17.3z"/>
				<path id="Path_134-2_1_" class="st2" d="M111.3,1.6L111.3,1.6c-2,0-3.7-1.7-3.7-3.7v-14.9c-0.1-1.4,0.6-2.7,1.8-3.4
					c1.2-0.7,2.7-0.7,3.9,0c1.2,0.7,1.9,2,1.8,3.4v14.9C115-0.1,113.4,1.6,111.3,1.6"/>
			</g>
		</g>
	</g>
</g>
</svg>
